<svg width="15" height="15" viewBox="0 0 15 15" fill="none" xmlns="http://www.w3.org/2000/svg">
<path d="M5.63559 3.52043C6.00565 2.43749 7.50197 2.40469 7.94072 3.42204L7.97785 3.52105L8.47724 4.98148C8.59169 5.31641 8.77663 5.6229 9.0196 5.88028C9.26257 6.13766 9.55791 6.33994 9.88569 6.47347L10.02 6.5236L11.4804 7.02237C12.5634 7.39243 12.5962 8.88876 11.5794 9.3275L11.4804 9.36463L10.02 9.86403C9.68493 9.9784 9.37832 10.1633 9.12083 10.4063C8.86334 10.6492 8.66097 10.9446 8.52737 11.2725L8.47724 11.4061L7.97847 12.8672C7.60841 13.9501 6.11209 13.9829 5.67396 12.9662L5.63559 12.8672L5.13682 11.4068C5.02244 11.0717 4.83753 10.7651 4.59456 10.5076C4.35159 10.2501 4.05622 10.0478 3.72837 9.91415L3.5947 9.86403L2.13427 9.36525C1.0507 8.99519 1.0179 7.49887 2.03526 7.06074L2.13427 7.02237L3.5947 6.5236C3.92963 6.40915 4.23612 6.22421 4.4935 5.98124C4.75088 5.73828 4.95315 5.44294 5.08669 5.11515L5.13682 4.98148L5.63559 3.52043ZM11.7576 1.38672C11.8734 1.38672 11.9869 1.41919 12.0851 1.48045C12.1833 1.54171 12.2624 1.6293 12.3133 1.73326L12.3431 1.80566L12.5596 2.44058L13.1952 2.65717C13.3112 2.69659 13.4129 2.76956 13.4874 2.86684C13.5619 2.96412 13.6059 3.08133 13.6137 3.20361C13.6215 3.32589 13.5928 3.44774 13.5313 3.55372C13.4698 3.6597 13.3783 3.74503 13.2682 3.79891L13.1952 3.82861L12.5603 4.0452L12.3437 4.68073C12.3042 4.79672 12.2312 4.89837 12.1338 4.97282C12.0365 5.04726 11.9193 5.09113 11.797 5.09889C11.6747 5.10664 11.5529 5.07792 11.447 5.01637C11.341 4.95482 11.2558 4.86321 11.2019 4.75314L11.1722 4.68073L10.9556 4.04582L10.3201 3.82923C10.2041 3.78981 10.1024 3.71684 10.0279 3.61956C9.95338 3.52228 9.90943 3.40507 9.90161 3.28279C9.89379 3.16051 9.92245 3.03866 9.98395 2.93268C10.0455 2.8267 10.137 2.74137 10.2471 2.68749L10.3201 2.65779L10.955 2.4412L11.1716 1.80566C11.2133 1.6834 11.2923 1.57726 11.3974 1.50213C11.5025 1.427 11.6285 1.38664 11.7576 1.38672Z" fill="black"/>
</svg>
