<svg width="17" height="17" viewBox="0 0 17 17" fill="none" xmlns="http://www.w3.org/2000/svg">
<path d="M6.25826 3.74393C6.66919 2.54135 8.33081 2.50493 8.81802 3.63467L8.85926 3.74461L9.41381 5.36637C9.5409 5.7383 9.74628 6.07865 10.0161 6.36446C10.2859 6.65027 10.6139 6.87489 10.9778 7.02318L11.127 7.07884L12.7487 7.63271C13.9513 8.04365 13.9877 9.70526 12.8587 10.1925L12.7487 10.2337L11.127 10.7883C10.7549 10.9153 10.4144 11.1206 10.1285 11.3904C9.84257 11.6602 9.61784 11.9882 9.46948 12.3523L9.41381 12.5007L8.85994 14.1232C8.44901 15.3258 6.78739 15.3622 6.30086 14.2331L6.25826 14.1232L5.70439 12.5014C5.57738 12.1294 5.37204 11.7889 5.10223 11.503C4.83242 11.217 4.50442 10.9923 4.14035 10.8439L3.99192 10.7883L2.37016 10.2344C1.1669 9.82346 1.13048 8.16184 2.26021 7.67532L2.37016 7.63271L3.99192 7.07884C4.36385 6.95175 4.7042 6.74637 4.99 6.47657C5.27581 6.20676 5.50044 5.8788 5.64872 5.5148L5.70439 5.36637L6.25826 3.74393ZM7.5591 4.18785L7.00523 5.80961C6.81171 6.37674 6.4969 6.89488 6.08271 7.32794C5.66852 7.761 5.16491 8.09857 4.60695 8.31715L4.43515 8.37968L2.8134 8.93355L4.43515 9.48742C5.00229 9.68094 5.52043 9.99576 5.95349 10.4099C6.38655 10.8241 6.72412 11.3277 6.94269 11.8857L7.00523 12.0575L7.5591 13.6793L8.11297 12.0575C8.30649 11.4904 8.6213 10.9722 9.03549 10.5392C9.44968 10.1061 9.95329 9.76853 10.5112 9.54996L10.683 9.48811L12.3048 8.93355L10.683 8.37968C10.1159 8.18616 9.59777 7.87135 9.16471 7.45716C8.73165 7.04297 8.39408 6.53936 8.17551 5.9814L8.11366 5.80961L7.5591 4.18785ZM13.0566 1.37451C13.1851 1.37451 13.3111 1.41057 13.4202 1.4786C13.5293 1.54663 13.6171 1.64389 13.6737 1.75934L13.7067 1.83974L13.9472 2.54479L14.6529 2.7853C14.7818 2.82907 14.8947 2.91011 14.9774 3.01813C15.0602 3.12616 15.109 3.25631 15.1176 3.3921C15.1263 3.52789 15.0945 3.6632 15.0262 3.78089C14.9579 3.89857 14.8562 3.99333 14.734 4.05316L14.6529 4.08615L13.9479 4.32666L13.7073 5.0324C13.6635 5.1612 13.5824 5.27408 13.4743 5.35675C13.3663 5.43941 13.2361 5.48814 13.1003 5.49675C12.9645 5.50536 12.8292 5.47347 12.7116 5.40512C12.594 5.33676 12.4993 5.23503 12.4395 5.1128L12.4065 5.0324L12.166 4.32735L11.4603 4.08683C11.3314 4.04306 11.2185 3.96203 11.1357 3.854C11.053 3.74598 11.0042 3.61582 10.9955 3.48003C10.9868 3.34424 11.0187 3.20893 11.087 3.09125C11.1553 2.97356 11.257 2.8788 11.3792 2.81898L11.4603 2.78599L12.1653 2.54548L12.4058 1.83974C12.4522 1.70397 12.5398 1.5861 12.6565 1.50267C12.7732 1.41924 12.9131 1.37443 13.0566 1.37451Z" fill="url(#paint0_linear_55_1017)"/>
<defs>
<linearGradient id="paint0_linear_55_1017" x1="1.43945" y1="8.21394" x2="15.119" y2="8.21394" gradientUnits="userSpaceOnUse">
<stop stop-color="#F54242"/>
<stop offset="1" stop-color="#1310B0"/>
</linearGradient>
</defs>
</svg>
