<svg width="17" height="17" viewBox="0 0 17 17" fill="none" xmlns="http://www.w3.org/2000/svg">
<path d="M5.80659 5.8409L4.81017 4.84448C5.27975 4.39781 5.80957 4.05124 6.39963 3.80477C6.98969 3.5583 7.60518 3.4353 8.2461 3.43575C8.88701 3.43621 9.50273 3.55945 10.0933 3.80546C10.6838 4.05147 11.2134 4.39781 11.682 4.84448L10.6856 5.8409C10.3535 5.50876 9.98124 5.25405 9.56893 5.07675C9.15662 4.89946 8.71567 4.81058 8.2461 4.81012C7.77652 4.80967 7.33558 4.89854 6.92327 5.07675C6.51095 5.25496 6.13873 5.50968 5.80659 5.8409ZM3.88247 3.84807L2.92041 2.88601C3.64195 2.17591 4.4581 1.63189 5.36885 1.25394C6.2796 0.875988 7.23868 0.687012 8.2461 0.687012C9.25351 0.687012 10.2128 0.875988 11.124 1.25394C12.0352 1.63189 12.8512 2.17591 13.5718 2.88601L12.6097 3.84807C12.0256 3.27541 11.3556 2.83447 10.5997 2.52523C9.8438 2.216 9.05927 2.06138 8.2461 2.06138C7.43293 2.06138 6.64839 2.216 5.89249 2.52523C5.13658 2.83447 4.46658 3.27541 3.88247 3.84807ZM6.87173 15.1179C6.49377 15.1179 6.17034 14.9834 5.90142 14.7145C5.6325 14.4456 5.49781 14.1219 5.49736 13.7435V8.24605C5.49736 7.8681 5.63204 7.54467 5.90142 7.27575C6.1708 7.00683 6.49423 6.87214 6.87173 6.87168H9.62047C9.99842 6.87168 10.3221 7.00637 10.5915 7.27575C10.8608 7.54512 10.9953 7.86856 10.9948 8.24605V13.7435C10.9948 14.1215 10.8604 14.4452 10.5915 14.7145C10.3225 14.9839 9.99888 15.1184 9.62047 15.1179H6.87173ZM9.62047 13.7435V8.24605H6.87173V13.7435H9.62047Z" fill="#1B1B1B"/>
</svg>
