<svg width="24" height="24" viewBox="0 0 24 24" fill="none" xmlns="http://www.w3.org/2000/svg">
<path fill-rule="evenodd" clip-rule="evenodd" d="M5 7.99995C5 7.79367 5.08194 7.59584 5.22781 7.44997C5.37367 7.30411 5.5715 7.22217 5.77778 7.22217H18.2222C18.4285 7.22217 18.6263 7.30411 18.7722 7.44997C18.9181 7.59584 19 7.79367 19 7.99995C19 8.20623 18.9181 8.40406 18.7722 8.54992C18.6263 8.69578 18.4285 8.77772 18.2222 8.77772H5.77778C5.5715 8.77772 5.37367 8.69578 5.22781 8.54992C5.08194 8.40406 5 8.20623 5 7.99995ZM6.55556 11.4999C6.55556 11.2937 6.6375 11.0958 6.78336 10.95C6.92922 10.8041 7.12705 10.7222 7.33333 10.7222H16.6667C16.8729 10.7222 17.0708 10.8041 17.2166 10.95C17.3625 11.0958 17.4444 11.2937 17.4444 11.4999C17.4444 11.7062 17.3625 11.9041 17.2166 12.0499C17.0708 12.1958 16.8729 12.2777 16.6667 12.2777H7.33333C7.12705 12.2777 6.92922 12.1958 6.78336 12.0499C6.6375 11.9041 6.55556 11.7062 6.55556 11.4999ZM8.88889 14.9999C8.88889 14.7937 8.97083 14.5958 9.11669 14.45C9.26256 14.3041 9.46039 14.2222 9.66667 14.2222H14.3333C14.5396 14.2222 14.7374 14.3041 14.8833 14.45C15.0292 14.5958 15.1111 14.7937 15.1111 14.9999C15.1111 15.2062 15.0292 15.4041 14.8833 15.5499C14.7374 15.6958 14.5396 15.7777 14.3333 15.7777H9.66667C9.46039 15.7777 9.26256 15.6958 9.11669 15.5499C8.97083 15.4041 8.88889 15.2062 8.88889 14.9999Z" fill="white"/>
<path d="M15.3122 3.17784C15.6611 2.157 17.0716 2.12609 17.4851 3.08509L17.5202 3.17842L17.9909 4.55509C18.0988 4.87081 18.2731 5.15972 18.5022 5.40233C18.7312 5.64495 19.0096 5.83563 19.3186 5.9615L19.4451 6.00875L20.8218 6.47892C21.8427 6.82775 21.8736 8.23825 20.9151 8.65184L20.8218 8.68684L19.4451 9.15759C19.1293 9.2654 18.8403 9.4397 18.5976 9.66874C18.3549 9.89777 18.1641 10.1762 18.0381 10.4853L17.9909 10.6113L17.5207 11.9885C17.1719 13.0093 15.7614 13.0403 15.3484 12.0818L15.3122 11.9885L14.8421 10.6118C14.7343 10.296 14.56 10.007 14.3309 9.76426C14.1019 9.52154 13.8234 9.33078 13.5144 9.20484L13.3884 9.15759L12.0117 8.68742C10.9903 8.33859 10.9594 6.92809 11.9184 6.51509L12.0117 6.47892L13.3884 6.00875C13.7041 5.90087 13.993 5.72653 14.2356 5.4975C14.4783 5.26847 14.6689 4.99007 14.7948 4.68109L14.8421 4.55509L15.3122 3.17784ZM21.0831 1.1665C21.1923 1.1665 21.2992 1.19712 21.3918 1.25486C21.4844 1.31261 21.559 1.39517 21.607 1.49317L21.635 1.56142L21.8391 2.15992L22.4382 2.36409C22.5476 2.40124 22.6435 2.47003 22.7137 2.56173C22.7839 2.65343 22.8254 2.76391 22.8327 2.87918C22.8401 2.99445 22.8131 3.10931 22.7551 3.20921C22.6971 3.30911 22.6108 3.38955 22.5071 3.44034L22.4382 3.46834L21.8397 3.6725L21.6356 4.27159C21.5983 4.38092 21.5295 4.47674 21.4378 4.54692C21.346 4.61709 21.2355 4.65845 21.1203 4.66576C21.005 4.67307 20.8902 4.646 20.7903 4.58797C20.6904 4.52995 20.6101 4.44359 20.5593 4.33984L20.5313 4.27159L20.3272 3.67309L19.7281 3.46892C19.6187 3.43177 19.5228 3.36298 19.4526 3.27128C19.3824 3.17958 19.3409 3.06909 19.3336 2.95383C19.3262 2.83856 19.3532 2.72369 19.4112 2.62379C19.4692 2.5239 19.5555 2.44346 19.6592 2.39267L19.7281 2.36467L20.3266 2.1605L20.5307 1.56142C20.5701 1.44617 20.6445 1.34612 20.7436 1.27529C20.8426 1.20447 20.9614 1.16643 21.0831 1.1665Z" fill="#FDE077"/>
</svg>
