<svg width="20" height="19" viewBox="0 0 20 19" fill="none" xmlns="http://www.w3.org/2000/svg">
<path d="M10.2178 1.60352V3.18053M6.66952 2.78627L7.85228 3.96903M13.7661 2.78627L12.5833 3.96903M12.0038 14.5129C12.2529 13.752 12.3775 13.372 12.6322 13.1102C12.7536 12.9851 12.8921 12.8836 13.0477 12.8058C13.3718 12.6426 13.7661 12.6426 14.5546 12.6426C15.3431 12.6426 15.7373 12.6426 16.0622 12.8058C16.2167 12.8836 16.3553 12.9851 16.4777 13.1102C16.7324 13.372 16.8562 13.752 17.1062 14.5129L17.3632 15.2975C17.6739 16.2453 17.8292 16.7184 17.5974 17.0464C17.3648 17.3736 16.8744 17.3736 15.8927 17.3736H13.2173C12.2356 17.3736 11.7443 17.3736 11.5125 17.0464C11.2799 16.7184 11.4352 16.2453 11.7459 15.2975L12.0038 14.5129ZM7.66619 8.20489C7.91536 7.44398 8.04073 7.06392 8.29463 6.80213C8.41711 6.67702 8.55563 6.57557 8.71017 6.49777C9.03504 6.33455 9.42929 6.33455 10.2178 6.33455C11.0063 6.33455 11.4006 6.33455 11.7254 6.49777C11.88 6.57557 12.0185 6.67702 12.141 6.80213C12.3949 7.06392 12.5194 7.44398 12.7694 8.20489L13.0265 8.98945C13.3371 9.93723 13.4917 10.4103 13.2606 10.7384C13.028 11.0656 12.5376 11.0656 11.5551 11.0656H8.88049C7.89801 11.0656 7.40756 11.0656 7.17574 10.7384C6.94313 10.4103 7.09847 9.93723 7.40914 8.98945L7.66619 8.20489ZM3.32941 14.5129C3.57937 13.752 3.70395 13.372 3.95864 13.1102C4.08007 12.9851 4.21858 12.8836 4.37418 12.8058C4.69826 12.6426 5.09251 12.6426 5.88102 12.6426C6.66952 12.6426 7.06377 12.6426 7.38864 12.8058C7.54319 12.8836 7.6817 12.9851 7.80418 13.1102C8.05887 13.372 8.18266 13.752 8.43262 14.5129L8.68967 15.2975C9.00034 16.2453 9.15568 16.7184 8.92386 17.0464C8.69125 17.3736 8.2008 17.3736 7.21911 17.3736H4.54371C3.56202 17.3736 3.07078 17.3736 2.83896 17.0464C2.60635 16.7184 2.76169 16.2453 3.07236 15.2975L3.32941 14.5129Z" stroke="#1B1B1B" stroke-width="1.18276" stroke-linecap="round" stroke-linejoin="round"/>
</svg>
