<svg width="32" height="30" viewBox="0 0 32 30" fill="none" xmlns="http://www.w3.org/2000/svg">
<path d="M7.6665 14.9998C7.6665 11.0715 7.6665 9.10734 8.8865 7.8865C10.1082 6.6665 12.0715 6.6665 15.9998 6.6665C19.9282 6.6665 21.8923 6.6665 23.1123 7.8865C24.3332 9.10817 24.3332 11.0715 24.3332 14.9998C24.3332 18.9282 24.3332 20.8923 23.1123 22.1123C21.8932 23.3332 19.9282 23.3332 15.9998 23.3332C12.0715 23.3332 10.1073 23.3332 8.8865 22.1123C7.6665 20.8932 7.6665 18.9282 7.6665 14.9998Z" stroke="#282828" stroke-width="1.25"/>
<path d="M11.8332 9.99984C11.8332 10.2209 11.7454 10.4328 11.5891 10.5891C11.4328 10.7454 11.2209 10.8332 10.9998 10.8332C10.7788 10.8332 10.5669 10.7454 10.4106 10.5891C10.2543 10.4328 10.1665 10.2209 10.1665 9.99984C10.1665 9.77882 10.2543 9.56686 10.4106 9.41058C10.5669 9.2543 10.7788 9.1665 10.9998 9.1665C11.2209 9.1665 11.4328 9.2543 11.5891 9.41058C11.7454 9.56686 11.8332 9.77882 11.8332 9.99984ZM14.3332 9.99984C14.3332 10.2209 14.2454 10.4328 14.0891 10.5891C13.9328 10.7454 13.7209 10.8332 13.4998 10.8332C13.2788 10.8332 13.0669 10.7454 12.9106 10.5891C12.7543 10.4328 12.6665 10.2209 12.6665 9.99984C12.6665 9.77882 12.7543 9.56686 12.9106 9.41058C13.0669 9.2543 13.2788 9.1665 13.4998 9.1665C13.7209 9.1665 13.9328 9.2543 14.0891 9.41058C14.2454 9.56686 14.3332 9.77882 14.3332 9.99984ZM16.8332 9.99984C16.8332 10.2209 16.7454 10.4328 16.5891 10.5891C16.4328 10.7454 16.2209 10.8332 15.9998 10.8332C15.7788 10.8332 15.5669 10.7454 15.4106 10.5891C15.2543 10.4328 15.1665 10.2209 15.1665 9.99984C15.1665 9.77882 15.2543 9.56686 15.4106 9.41058C15.5669 9.2543 15.7788 9.1665 15.9998 9.1665C16.2209 9.1665 16.4328 9.2543 16.5891 9.41058C16.7454 9.56686 16.8332 9.77882 16.8332 9.99984Z" fill="#282828"/>
<path d="M7.6665 12.9165H24.3332M13.4998 22.4998V13.3332" stroke="#282828" stroke-width="1.25" stroke-linecap="round"/>
</svg>
