<svg width="20" height="19" viewBox="0 0 20 19" fill="none" xmlns="http://www.w3.org/2000/svg">
<path d="M11.9419 2.19678V5.03224C11.9419 5.41625 12.0949 5.78527 12.3677 6.0573C12.6412 6.32963 13.0115 6.48245 13.3975 6.48231H16.6501" stroke="#1B1B1B" stroke-width="1.18276" stroke-linecap="round" stroke-linejoin="round"/>
<path d="M16.7232 6.78217V13.5381C16.7076 13.98 16.6046 14.4144 16.4203 14.8163C16.236 15.2183 15.9739 15.5798 15.6493 15.8799C15.3244 16.1815 14.9432 16.4161 14.5276 16.5704C14.112 16.7246 13.67 16.7955 13.227 16.7788H7.24224C6.79653 16.7992 6.35118 16.7314 5.93173 16.5793C5.51227 16.4272 5.12696 16.1939 4.79787 15.8926C4.47007 15.5916 4.20535 15.2284 4.01909 14.8242C3.83283 14.42 3.72875 13.9828 3.71289 13.5381V5.43698C3.72855 4.99508 3.8315 4.56064 4.01582 4.15872C4.20014 3.75679 4.46218 3.39531 4.78684 3.09511C5.11176 2.79353 5.49293 2.55892 5.90855 2.40468C6.32418 2.25044 6.76612 2.17961 7.20913 2.19622H11.7146C12.4024 2.19379 13.0664 2.44827 13.5763 2.90981L15.9103 5.05613C16.1593 5.27066 16.3604 5.53523 16.5005 5.83261C16.6406 6.12999 16.7165 6.45352 16.7232 6.78217Z" stroke="#1B1B1B" stroke-width="1.18276" stroke-linecap="round" stroke-linejoin="round"/>
<path d="M12.1974 9.10449L8.23126 13.0723M8.23047 9.11317L12.1982 13.0809" stroke="#1B1B1B" stroke-width="1.18276" stroke-miterlimit="10" stroke-linecap="round"/>
</svg>
