<svg width="32" height="30" viewBox="0 0 32 30" fill="none" xmlns="http://www.w3.org/2000/svg">
<g clip-path="url(#clip0_59_1148)">
<path fill-rule="evenodd" clip-rule="evenodd" d="M24.9729 8.763C25.0631 8.89998 25.1033 9.06391 25.0867 9.2271C25.0701 9.39029 24.9977 9.54275 24.8817 9.65873L16.1496 18.3899C16.0602 18.4792 15.9488 18.5431 15.8266 18.5751L12.1896 19.525C12.0693 19.5564 11.943 19.5557 11.8231 19.5232C11.7032 19.4906 11.5939 19.4273 11.506 19.3394C11.4182 19.2516 11.3548 19.1422 11.3223 19.0223C11.2897 18.9024 11.2891 18.7761 11.3204 18.6559L12.2703 15.0198C12.2987 14.9109 12.3509 14.8097 12.4232 14.7234L21.1876 5.96469C21.3212 5.83128 21.5023 5.75635 21.6911 5.75635C21.8799 5.75635 22.0609 5.83128 22.1945 5.96469L24.8817 8.65092C24.9149 8.68591 24.9454 8.72338 24.9729 8.763ZM23.3704 9.15435L21.6911 7.47593L13.6001 15.5669L13.0064 17.8399L15.2795 17.2463L23.3704 9.15435Z" fill="#282828"/>
<path d="M23.25 19.9185C23.5096 17.6996 23.5925 15.4635 23.4979 13.2314C23.4957 13.1788 23.5044 13.1263 23.5235 13.0773C23.5426 13.0282 23.5718 12.9837 23.609 12.9465L24.5437 12.0118C24.5692 11.9861 24.6016 11.9684 24.637 11.9606C24.6724 11.9529 24.7093 11.9556 24.7432 11.9684C24.7771 11.9811 24.8066 12.0034 24.8282 12.0325C24.8497 12.0616 24.8624 12.0963 24.8647 12.1324C25.0402 14.7838 24.9734 17.4455 24.6653 20.0847C24.4411 22.0054 22.8985 23.5109 20.9864 23.7246C17.667 24.092 14.3171 24.092 10.9976 23.7246C9.08649 23.5109 7.54295 22.0054 7.31878 20.0847C6.92564 16.7178 6.92564 13.3166 7.31878 9.94964C7.54295 8.029 9.08554 6.52346 10.9976 6.30974C13.5171 6.03148 16.0554 5.9638 18.5861 6.10742C18.6223 6.11002 18.657 6.12295 18.6861 6.14467C18.7152 6.16639 18.7375 6.19599 18.7503 6.22997C18.7631 6.26396 18.7659 6.30089 18.7583 6.33641C18.7508 6.37193 18.7332 6.40454 18.7077 6.43038L17.7645 7.37265C17.7276 7.40954 17.6835 7.43845 17.635 7.45757C17.5865 7.47669 17.5345 7.48562 17.4824 7.48378C15.3706 7.41145 13.2563 7.4924 11.1562 7.726C10.5426 7.79392 9.96972 8.06674 9.53022 8.50038C9.09072 8.93402 8.81024 9.50316 8.73409 10.1159C8.35305 13.3723 8.35305 16.6621 8.73409 19.9185C8.81024 20.5312 9.09072 21.1003 9.53022 21.534C9.96972 21.9676 10.5426 22.2404 11.1562 22.3084C14.3431 22.6646 17.641 22.6646 20.8288 22.3084C21.4424 22.2404 22.0153 21.9676 22.4548 21.534C22.8943 21.1003 23.1738 20.5312 23.25 19.9185Z" fill="#282828"/>
</g>
<defs>
<clipPath id="clip0_59_1148">
<rect width="20" height="20" fill="white" transform="translate(6 5)"/>
</clipPath>
</defs>
</svg>
